<?xml version="1.0" encoding="UTF-8" standalone="no"?>
<svg
   xmlns:dc="http://purl.org/dc/elements/1.1/"
   xmlns:cc="http://creativecommons.org/ns#"
   xmlns:rdf="http://www.w3.org/1999/02/22-rdf-syntax-ns#"
   xmlns:svg="http://www.w3.org/2000/svg"
   xmlns="http://www.w3.org/2000/svg"
   xmlns:sodipodi="http://sodipodi.sourceforge.net/DTD/sodipodi-0.dtd"
   xmlns:inkscape="http://www.inkscape.org/namespaces/inkscape"
   version="1.0"
   width="800pt"
   height="800pt"
   viewBox="0 0 800 800"
   preserveAspectRatio="xMidYMid meet"
   id="svg2"
   inkscape:version="0.91 r13725"
   sodipodi:docname="pdsg_black_and_white.svg"
   inkscape:export-filename="/Users/benlindsay/Dropbox/pelican_site/content/images/pdsg_black_and_white.png"
   inkscape:export-xdpi="90"
   inkscape:export-ydpi="90">
  <defs
     id="defs14" />
  <sodipodi:namedview
     pagecolor="#ffffff"
     bordercolor="#666666"
     borderopacity="1"
     objecttolerance="10"
     gridtolerance="10"
     guidetolerance="10"
     inkscape:pageopacity="0"
     inkscape:pageshadow="2"
     inkscape:window-width="864"
     inkscape:window-height="736"
     id="namedview12"
     showgrid="false"
     inkscape:zoom="0.13485714"
     inkscape:cx="975.10593"
     inkscape:cy="585.80508"
     inkscape:window-x="0"
     inkscape:window-y="0"
     inkscape:window-maximized="0"
     inkscape:current-layer="svg2" />
  <metadata
     id="metadata4">
Created by potrace 1.11, written by Peter Selinger 2001-2013
<rdf:RDF>
  <cc:Work
     rdf:about="">
    <dc:format>image/svg+xml</dc:format>
    <dc:type
       rdf:resource="http://purl.org/dc/dcmitype/StillImage" />
    <dc:title />
  </cc:Work>
</rdf:RDF>
</metadata>
  <rect
     style="fill:#444444;fill-opacity:1;stroke:none"
     id="rect4165"
     width="800"
     height="800"
     x="0"
     y="-8.1062317e-06"
     rx="160"
     ry="160" />
  <g
     transform="matrix(0.1,0,0,-0.1,49.95,762.85737)"
     id="g6"
     style="fill:#ffffff;fill-opacity:1;stroke:none">
    <path
       d="m 600,5213 c 0,-1603 2,-1651 45,-1906 123,-712 482,-1366 1067,-1943 268,-265 496,-449 806,-651 370,-240 791,-436 967,-450 64,-5 82,-2 195,36 278,93 664,308 1016,565 368,270 749,644 995,976 328,444 549,926 644,1408 61,306 58,215 62,1925 l 4,1567 -2901,0 -2900,0 0,-1527 z m 2425,1129 c 53,-33 85,-36 111,-11 18,17 40,24 84,27 71,5 96,-10 106,-64 6,-32 7,-33 33,-20 81,41 150,15 151,-56 0,-29 24,-41 113,-53 66,-9 87,-32 87,-94 l 0,-49 60,-7 c 46,-5 63,-12 71,-27 11,-20 9,-57 -5,-89 -6,-14 3,-20 43,-34 55,-18 62,-34 41,-91 -9,-23 -8,-29 6,-37 9,-5 29,-21 46,-36 26,-23 29,-32 26,-71 l -3,-45 -117,145 c -114,142 -263,297 -343,357 -159,119 -329,164 -542,143 -158,-15 -247,-35 -315,-68 l -57,-28 -11,25 c -9,20 -8,26 4,33 8,4 33,36 57,71 23,34 47,65 53,69 15,10 45,0 82,-28 17,-13 35,-24 39,-24 4,0 25,18 45,40 42,46 84,53 135,22 z m 2864,-43 c 41,-22 80,-39 88,-39 11,0 13,-68 13,-366 l 0,-366 -106,7 c -73,5 -141,17 -218,40 l -111,32 -3,339 -2,339 82,28 c 134,44 147,43 257,-14 z m -4493,4 54,-24 0,-338 0,-338 -62,-17 c -35,-9 -94,-25 -133,-36 -45,-12 -104,-19 -163,-19 l -92,-1 2,357 c 3,349 3,358 23,361 11,2 56,20 100,40 132,59 171,61 271,15 z m 355,25 c 19,-6 54,-24 79,-38 25,-15 57,-30 73,-33 l 27,-7 0,-361 0,-361 -112,4 c -85,3 -136,11 -208,32 -52,16 -101,30 -107,32 -10,3 -13,80 -13,346 l 0,343 83,27 c 92,30 128,33 178,16 z m 3712,-17 47,-22 0,-342 0,-342 -68,-17 c -37,-10 -90,-24 -118,-32 -28,-8 -97,-17 -153,-21 l -101,-8 0,360 0,360 39,11 c 21,7 72,28 112,47 65,31 82,35 134,32 33,-2 81,-14 108,-26 z m -4495,-458 2,-393 206,0 206,0 28,-30 c 19,-21 37,-30 59,-30 30,0 71,29 71,50 0,6 78,10 215,10 l 215,0 0,390 0,390 45,0 45,0 0,-65 c 0,-59 2,-67 30,-92 42,-37 39,-67 -10,-98 l -40,-25 0,-159 0,-159 35,-31 c 23,-20 35,-39 35,-56 0,-14 -3,-25 -8,-25 -4,0 -20,-11 -35,-25 -25,-24 -27,-31 -27,-105 l 0,-80 -565,0 -565,0 0,75 c 0,74 0,75 -45,125 -25,28 -45,54 -45,58 0,5 14,21 30,37 l 30,29 0,167 0,167 -40,32 c -22,17 -40,39 -40,47 0,9 18,33 40,53 37,34 40,41 40,89 l 0,52 43,-3 42,-3 3,-392 z m 4064,5 3,-393 208,-3 208,-2 22,-26 c 32,-37 93,-37 122,0 20,25 25,26 115,26 52,0 146,3 208,7 l 112,6 0,389 0,389 48,-3 47,-3 3,-64 c 3,-55 8,-70 33,-98 16,-19 29,-36 29,-39 0,-17 -25,-46 -50,-59 l -30,-16 0,-164 0,-164 35,-27 c 45,-34 45,-61 0,-97 -35,-28 -35,-29 -35,-106 l 0,-78 -412,-6 c -227,-4 -487,-7 -577,-7 l -164,0 6,38 c 3,20 9,53 13,73 6,33 2,41 -40,88 -25,28 -46,57 -46,64 0,8 14,26 30,42 l 30,29 0,161 0,161 -40,39 c -22,21 -40,46 -40,55 0,8 16,28 35,43 32,26 35,32 35,82 l 0,55 45,0 45,0 2,-392 z m -2429,224 c 61,-127 77,-194 57,-232 -7,-13 -32,-45 -56,-71 -37,-39 -42,-48 -30,-58 12,-10 29,-1 91,48 64,52 82,61 116,61 73,0 121,-38 227,-181 18,-23 -6,-45 -104,-93 -105,-51 -111,-86 -16,-86 37,0 43,-3 38,-17 -3,-10 -8,-30 -12,-45 -8,-35 -62,-84 -175,-158 -110,-72 -181,-100 -258,-100 -48,0 -63,4 -85,25 -47,43 -36,50 87,58 88,6 181,51 256,124 51,49 54,55 37,65 -15,8 -23,5 -45,-19 -29,-32 -97,-80 -151,-108 -49,-25 -214,-37 -260,-18 -63,25 -65,49 -10,122 53,71 55,119 7,165 -45,42 -48,56 -32,121 41,155 218,515 254,515 4,0 33,-53 64,-118 z m 607,104 c 98,-18 173,-47 251,-98 82,-52 258,-225 362,-353 44,-55 94,-114 110,-132 17,-18 31,-41 32,-52 1,-21 146,-143 225,-190 40,-23 55,-26 135,-26 73,1 98,5 132,23 105,55 125,173 43,254 -32,33 -44,38 -82,38 -46,0 -98,-29 -143,-79 l -20,-23 -6,24 c -14,50 -9,129 11,168 23,46 90,89 150,97 40,6 40,6 40,49 0,95 35,197 82,241 32,30 90,53 133,53 34,0 35,-1 28,-27 -17,-60 -7,-246 21,-392 38,-198 35,-299 -12,-393 -39,-80 -104,-142 -194,-185 -89,-43 -156,-57 -283,-58 -178,0 -224,15 -571,191 -187,95 -328,161 -374,173 -83,23 -187,27 -256,10 -34,-9 -48,-9 -57,0 -6,6 -22,11 -37,11 -20,1 -14,7 32,30 55,29 98,70 98,96 0,7 -24,43 -54,80 l -54,67 20,34 c 28,47 57,51 134,19 77,-31 108,-32 165,-6 59,26 91,25 123,-5 31,-29 46,-64 46,-110 l 0,-33 37,10 c 47,13 108,-4 125,-35 7,-12 15,-42 18,-67 l 5,-45 53,3 c 31,2 59,-1 67,-8 8,-6 19,-37 26,-68 14,-72 23,-89 51,-98 35,-10 58,-35 58,-61 0,-16 6,-23 20,-23 15,0 20,7 20,28 0,37 -24,69 -65,86 -31,13 -35,20 -46,75 -16,82 -43,111 -104,111 -40,0 -45,2 -45,23 0,30 -33,82 -65,103 -14,9 -46,18 -69,18 -42,1 -44,2 -59,46 -34,96 -109,130 -200,91 -60,-26 -87,-26 -135,-2 -85,44 -153,36 -186,-20 -10,-17 -21,-28 -24,-27 -75,40 -109,50 -157,45 l -52,-5 -6,47 c -3,26 -18,78 -33,116 l -27,68 23,19 c 34,27 146,58 267,73 142,17 183,17 273,1 z M 6317,4288 c -4,-688 -8,-752 -62,-1020 -56,-282 -173,-612 -304,-858 l -40,-75 -1,538 0,537 -415,0 -415,0 0,-1064 0,-1063 -83,-72 -82,-71 -3,510 -2,510 -415,0 -415,0 0,-798 0,-798 -75,-37 c -42,-20 -80,-37 -85,-37 -7,0 -10,594 -10,1705 l 0,1705 -410,0 -410,0 0,-1705 c 0,-938 -2,-1705 -5,-1705 -3,0 -41,18 -85,40 l -80,40 0,2070 0,2070 -415,0 -415,0 -2,-1790 -3,-1790 -82,71 -83,70 0,765 0,764 -415,0 -415,0 -2,-247 -3,-248 -52,100 c -115,223 -216,501 -271,746 -70,307 -82,483 -82,1222 l 0,557 2821,0 2821,0 -5,-642 z"
       id="path8"
       style="fill:#ffffff;fill-opacity:1"
       inkscape:connector-curvature="0" />
    <path
       d="m 2525,5630 c -38,-15 -48,-38 -50,-115 l -3,-75 40,0 c 69,0 178,99 153,140 -7,11 -99,60 -112,59 -4,0 -17,-4 -28,-9 z"
       id="path10"
       style="fill:#ffffff;fill-opacity:1"
       inkscape:connector-curvature="0" />
  </g>
</svg>
